<mxfile host="app.diagrams.net" agent="Mozilla/5.0 (Windows NT 10.0; Win64; x64) AppleWebKit/537.36 (KHTML, like Gecko) Chrome/137.0.0.0 Safari/537.36" version="27.1.5" pages="16">
  <diagram name="SignIn" id="N6GayVzrRstHOmk6WzIa">
    <mxGraphModel dx="454" dy="593" grid="1" gridSize="10" guides="1" tooltips="1" connect="1" arrows="1" fold="1" page="1" pageScale="1" pageWidth="850" pageHeight="1100" math="0" shadow="0">
      <root>
        <mxCell id="0" />
        <mxCell id="1" parent="0" />
        <mxCell id="EVhgLAGG6ibvL9TU4sFH-7" value="" style="shape=umlLifeline;perimeter=lifelinePerimeter;whiteSpace=wrap;html=1;container=0;dropTarget=0;collapsible=0;recursiveResize=0;outlineConnect=0;portConstraint=eastwest;newEdgeStyle={&quot;curved&quot;:0,&quot;rounded&quot;:0};participant=umlActor;" parent="1" vertex="1">
          <mxGeometry x="230" y="90" width="20" height="220" as="geometry" />
        </mxCell>
        <mxCell id="EVhgLAGG6ibvL9TU4sFH-8" value="&lt;b&gt;:System&lt;/b&gt;" style="shape=umlLifeline;perimeter=lifelinePerimeter;whiteSpace=wrap;html=1;container=1;dropTarget=0;collapsible=0;recursiveResize=0;outlineConnect=0;portConstraint=eastwest;newEdgeStyle={&quot;curved&quot;:0,&quot;rounded&quot;:0};fontStyle=4" parent="1" vertex="1">
          <mxGeometry x="490" y="90" width="100" height="220" as="geometry" />
        </mxCell>
        <mxCell id="EVhgLAGG6ibvL9TU4sFH-10" value="requestSignIn()" style="html=1;verticalAlign=bottom;endArrow=block;curved=0;rounded=0;" parent="1" edge="1">
          <mxGeometry x="-0.0017" width="80" relative="1" as="geometry">
            <mxPoint x="239.5" y="170" as="sourcePoint" />
            <mxPoint x="540" y="170" as="targetPoint" />
            <mxPoint as="offset" />
          </mxGeometry>
        </mxCell>
        <mxCell id="EVhgLAGG6ibvL9TU4sFH-12" value="&lt;b&gt;User&amp;nbsp;&lt;/b&gt;&lt;div&gt;&lt;b&gt;(Doctor / Mother)&lt;/b&gt;&lt;/div&gt;" style="text;html=1;align=center;verticalAlign=middle;resizable=0;points=[];autosize=1;strokeColor=none;fillColor=none;" parent="1" vertex="1">
          <mxGeometry x="180" y="50" width="120" height="40" as="geometry" />
        </mxCell>
        <mxCell id="YgjMGdkegu4M4lKIkr5J-3" value="provideCredentials(email, password)" style="html=1;verticalAlign=bottom;endArrow=block;curved=0;rounded=0;" parent="1" edge="1">
          <mxGeometry width="80" relative="1" as="geometry">
            <mxPoint x="239.75925925925924" y="208" as="sourcePoint" />
            <mxPoint x="539.5" y="208" as="targetPoint" />
          </mxGeometry>
        </mxCell>
        <mxCell id="YgjMGdkegu4M4lKIkr5J-4" value="user authenticated successully." style="html=1;verticalAlign=bottom;endArrow=open;dashed=1;endSize=8;curved=0;rounded=0;" parent="1" edge="1">
          <mxGeometry relative="1" as="geometry">
            <mxPoint x="539.5" y="245" as="sourcePoint" />
            <mxPoint x="239.75925925925924" y="245" as="targetPoint" />
          </mxGeometry>
        </mxCell>
      </root>
    </mxGraphModel>
  </diagram>
  <diagram id="Yyx0o5TSY3xgZ4pMwKbJ" name="SignUp">
    <mxGraphModel dx="454" dy="593" grid="1" gridSize="10" guides="1" tooltips="1" connect="1" arrows="1" fold="1" page="1" pageScale="1" pageWidth="850" pageHeight="1100" math="0" shadow="0">
      <root>
        <mxCell id="0" />
        <mxCell id="1" parent="0" />
        <mxCell id="LHX_hr5OwsLQoqtaQr-F-1" value="&lt;b&gt;:System&lt;/b&gt;" style="shape=umlLifeline;perimeter=lifelinePerimeter;whiteSpace=wrap;html=1;container=1;dropTarget=0;collapsible=0;recursiveResize=0;outlineConnect=0;portConstraint=eastwest;newEdgeStyle={&quot;curved&quot;:0,&quot;rounded&quot;:0};" parent="1" vertex="1">
          <mxGeometry x="630" y="490" width="100" height="250" as="geometry" />
        </mxCell>
        <mxCell id="LHX_hr5OwsLQoqtaQr-F-3" value="" style="shape=umlLifeline;perimeter=lifelinePerimeter;whiteSpace=wrap;html=1;container=0;dropTarget=0;collapsible=0;recursiveResize=0;outlineConnect=0;portConstraint=eastwest;newEdgeStyle={&quot;curved&quot;:0,&quot;rounded&quot;:0};participant=umlActor;" parent="1" vertex="1">
          <mxGeometry x="240" y="520" width="20" height="210" as="geometry" />
        </mxCell>
        <mxCell id="LHX_hr5OwsLQoqtaQr-F-4" value="requestSignUp()" style="html=1;verticalAlign=bottom;endArrow=block;curved=0;rounded=0;" parent="1" target="LHX_hr5OwsLQoqtaQr-F-1" edge="1">
          <mxGeometry width="80" relative="1" as="geometry">
            <mxPoint x="249.5" y="592" as="sourcePoint" />
            <mxPoint x="639.5" y="592" as="targetPoint" />
            <mxPoint as="offset" />
          </mxGeometry>
        </mxCell>
        <mxCell id="LHX_hr5OwsLQoqtaQr-F-6" value="&lt;b&gt;User&amp;nbsp;&lt;/b&gt;&lt;div&gt;&lt;b&gt;(Doctor / Mother)&lt;/b&gt;&lt;/div&gt;" style="text;html=1;align=center;verticalAlign=middle;resizable=0;points=[];autosize=1;strokeColor=none;fillColor=none;" parent="1" vertex="1">
          <mxGeometry x="190" y="450" width="120" height="40" as="geometry" />
        </mxCell>
        <mxCell id="sfrPIiyPcjP5FA_OpZy0-5" value="provideCredentials(email, photo, name, dateOfBirth, role, password, confirmPassword)" style="html=1;verticalAlign=bottom;endArrow=block;curved=0;rounded=0;" parent="1" target="LHX_hr5OwsLQoqtaQr-F-1" edge="1">
          <mxGeometry x="-0.0015" width="80" relative="1" as="geometry">
            <mxPoint x="249.5" y="653" as="sourcePoint" />
            <mxPoint x="639.5" y="653" as="targetPoint" />
            <mxPoint as="offset" />
          </mxGeometry>
        </mxCell>
        <mxCell id="sfrPIiyPcjP5FA_OpZy0-7" value="Account Created Successfully" style="html=1;verticalAlign=bottom;endArrow=open;dashed=1;endSize=8;curved=0;rounded=0;" parent="1" edge="1">
          <mxGeometry relative="1" as="geometry">
            <mxPoint x="679.5" y="694" as="sourcePoint" />
            <mxPoint x="249.5" y="694" as="targetPoint" />
          </mxGeometry>
        </mxCell>
      </root>
    </mxGraphModel>
  </diagram>
  <diagram id="Fanrsh-Y3Voa6wJdwCKg" name="Reset Password">
    <mxGraphModel dx="454" dy="593" grid="1" gridSize="10" guides="1" tooltips="1" connect="1" arrows="1" fold="1" page="1" pageScale="1" pageWidth="850" pageHeight="1100" math="0" shadow="0">
      <root>
        <mxCell id="0" />
        <mxCell id="1" parent="0" />
        <mxCell id="NAHhVBtq1M-nfspq5FFh-1" value="&lt;b&gt;:System&lt;/b&gt;" style="shape=umlLifeline;perimeter=lifelinePerimeter;whiteSpace=wrap;html=1;container=1;dropTarget=0;collapsible=0;recursiveResize=0;outlineConnect=0;portConstraint=eastwest;newEdgeStyle={&quot;curved&quot;:0,&quot;rounded&quot;:0};" parent="1" vertex="1">
          <mxGeometry x="643" y="283" width="100" height="587" as="geometry" />
        </mxCell>
        <mxCell id="NAHhVBtq1M-nfspq5FFh-5" value="oneTimePassword" style="html=1;verticalAlign=bottom;endArrow=open;dashed=1;endSize=8;curved=0;rounded=0;" parent="NAHhVBtq1M-nfspq5FFh-1" edge="1">
          <mxGeometry relative="1" as="geometry">
            <mxPoint x="45" y="292" as="sourcePoint" />
            <mxPoint x="-250" y="292" as="targetPoint" />
          </mxGeometry>
        </mxCell>
        <mxCell id="NAHhVBtq1M-nfspq5FFh-7" value="prompt new password" style="html=1;verticalAlign=bottom;endArrow=open;dashed=1;endSize=8;curved=0;rounded=0;" parent="NAHhVBtq1M-nfspq5FFh-1" edge="1">
          <mxGeometry relative="1" as="geometry">
            <mxPoint x="43" y="394" as="sourcePoint" />
            <mxPoint x="-252" y="394" as="targetPoint" />
          </mxGeometry>
        </mxCell>
        <mxCell id="NAHhVBtq1M-nfspq5FFh-23" value="Password Resest Success" style="html=1;verticalAlign=bottom;endArrow=open;dashed=1;endSize=8;curved=0;rounded=0;" parent="NAHhVBtq1M-nfspq5FFh-1" edge="1">
          <mxGeometry relative="1" as="geometry">
            <mxPoint x="43" y="498" as="sourcePoint" />
            <mxPoint x="-252" y="498" as="targetPoint" />
          </mxGeometry>
        </mxCell>
        <mxCell id="NAHhVBtq1M-nfspq5FFh-10" value="" style="shape=umlLifeline;perimeter=lifelinePerimeter;whiteSpace=wrap;html=1;container=0;dropTarget=0;collapsible=0;recursiveResize=0;outlineConnect=0;portConstraint=eastwest;newEdgeStyle={&quot;curved&quot;:0,&quot;rounded&quot;:0};participant=umlActor;" parent="1" vertex="1">
          <mxGeometry x="378" y="293" width="20" height="567" as="geometry" />
        </mxCell>
        <mxCell id="NAHhVBtq1M-nfspq5FFh-14" value="initiatePasswordReset()" style="html=1;verticalAlign=bottom;endArrow=block;curved=0;rounded=0;" parent="1" edge="1">
          <mxGeometry width="80" relative="1" as="geometry">
            <mxPoint x="393" y="413" as="sourcePoint" />
            <mxPoint x="688" y="413" as="targetPoint" />
          </mxGeometry>
        </mxCell>
        <mxCell id="NAHhVBtq1M-nfspq5FFh-15" value="prompts registered email" style="html=1;verticalAlign=bottom;endArrow=open;dashed=1;endSize=8;curved=0;rounded=0;" parent="1" edge="1">
          <mxGeometry relative="1" as="geometry">
            <mxPoint x="683" y="467.6600000000001" as="sourcePoint" />
            <mxPoint x="393" y="467.6600000000001" as="targetPoint" />
          </mxGeometry>
        </mxCell>
        <mxCell id="NAHhVBtq1M-nfspq5FFh-16" value="&lt;b&gt;User&lt;br&gt;Mother / Doctor&lt;/b&gt;" style="text;html=1;align=center;verticalAlign=middle;resizable=0;points=[];autosize=1;strokeColor=none;fillColor=none;" parent="1" vertex="1">
          <mxGeometry x="334" y="243" width="110" height="40" as="geometry" />
        </mxCell>
        <mxCell id="NAHhVBtq1M-nfspq5FFh-18" value="submitRegisteredEmail(email)" style="html=1;verticalAlign=bottom;endArrow=block;curved=0;rounded=0;" parent="1" edge="1">
          <mxGeometry width="80" relative="1" as="geometry">
            <mxPoint x="393" y="523" as="sourcePoint" />
            <mxPoint x="688" y="523" as="targetPoint" />
          </mxGeometry>
        </mxCell>
        <mxCell id="vVuwLOOllmPFjARPKvVa-1" value="submitCode(oneTimePassword)" style="html=1;verticalAlign=bottom;endArrow=block;curved=0;rounded=0;" edge="1" parent="1">
          <mxGeometry width="80" relative="1" as="geometry">
            <mxPoint x="387.5" y="626.5" as="sourcePoint" />
            <mxPoint x="692.5" y="626.5" as="targetPoint" />
          </mxGeometry>
        </mxCell>
        <mxCell id="vVuwLOOllmPFjARPKvVa-2" value="submitNewPassword(newPassword, confirmPassword)" style="html=1;verticalAlign=bottom;endArrow=block;curved=0;rounded=0;" edge="1" parent="1">
          <mxGeometry width="80" relative="1" as="geometry">
            <mxPoint x="388" y="727" as="sourcePoint" />
            <mxPoint x="693" y="727" as="targetPoint" />
          </mxGeometry>
        </mxCell>
      </root>
    </mxGraphModel>
  </diagram>
  <diagram id="nSgAt2Y5GcSwiUJ2lX43" name="Pair Wrist Band">
    <mxGraphModel dx="454" dy="593" grid="1" gridSize="10" guides="1" tooltips="1" connect="1" arrows="1" fold="1" page="1" pageScale="1" pageWidth="850" pageHeight="1100" math="0" shadow="0">
      <root>
        <mxCell id="0" />
        <mxCell id="1" parent="0" />
        <mxCell id="EY9uETwzX0IC2XWFd5OE-1" value="&lt;u&gt;&lt;b&gt;:System&lt;/b&gt;&lt;/u&gt;" style="shape=umlLifeline;perimeter=lifelinePerimeter;whiteSpace=wrap;html=1;container=1;dropTarget=0;collapsible=0;recursiveResize=0;outlineConnect=0;portConstraint=eastwest;newEdgeStyle={&quot;curved&quot;:0,&quot;rounded&quot;:0};" parent="1" vertex="1">
          <mxGeometry x="545" y="210" width="100" height="330" as="geometry" />
        </mxCell>
        <mxCell id="EY9uETwzX0IC2XWFd5OE-3" value="" style="shape=umlLifeline;perimeter=lifelinePerimeter;whiteSpace=wrap;html=1;container=0;dropTarget=0;collapsible=0;recursiveResize=0;outlineConnect=0;portConstraint=eastwest;newEdgeStyle={&quot;curved&quot;:0,&quot;rounded&quot;:0};participant=umlActor;" parent="1" vertex="1">
          <mxGeometry x="280" y="220" width="20" height="320" as="geometry" />
        </mxCell>
        <mxCell id="EY9uETwzX0IC2XWFd5OE-4" value="requestDeviceList()" style="html=1;verticalAlign=bottom;endArrow=block;curved=0;rounded=0;" parent="1" source="EY9uETwzX0IC2XWFd5OE-3" edge="1">
          <mxGeometry x="0.0034" width="80" relative="1" as="geometry">
            <mxPoint x="300" y="300" as="sourcePoint" />
            <mxPoint x="595" y="300" as="targetPoint" />
            <mxPoint as="offset" />
          </mxGeometry>
        </mxCell>
        <mxCell id="EY9uETwzX0IC2XWFd5OE-5" value="display list of available bluetooth devices" style="html=1;verticalAlign=bottom;endArrow=open;dashed=1;endSize=8;curved=0;rounded=0;" parent="1" target="EY9uETwzX0IC2XWFd5OE-3" edge="1">
          <mxGeometry relative="1" as="geometry">
            <mxPoint x="590" y="360" as="sourcePoint" />
            <mxPoint x="300" y="360" as="targetPoint" />
          </mxGeometry>
        </mxCell>
        <mxCell id="EY9uETwzX0IC2XWFd5OE-6" value="&lt;div&gt;&lt;b&gt;Mother&lt;/b&gt;&lt;/div&gt;" style="text;html=1;align=center;verticalAlign=middle;resizable=0;points=[];autosize=1;strokeColor=none;fillColor=none;" parent="1" vertex="1">
          <mxGeometry x="260" y="175" width="60" height="30" as="geometry" />
        </mxCell>
        <mxCell id="EY9uETwzX0IC2XWFd5OE-13" value="selectDevice(wristbandID)" style="html=1;verticalAlign=bottom;endArrow=block;curved=0;rounded=0;" parent="1" edge="1">
          <mxGeometry x="0.0034" width="80" relative="1" as="geometry">
            <mxPoint x="289.5" y="430" as="sourcePoint" />
            <mxPoint x="594.5" y="430" as="targetPoint" />
            <mxPoint as="offset" />
          </mxGeometry>
        </mxCell>
        <mxCell id="EY9uETwzX0IC2XWFd5OE-17" value="Wrist Band Connected Successfully" style="html=1;verticalAlign=bottom;endArrow=open;dashed=1;endSize=8;curved=0;rounded=0;" parent="1" target="EY9uETwzX0IC2XWFd5OE-3" edge="1">
          <mxGeometry x="-0.0012" relative="1" as="geometry">
            <mxPoint x="590" y="500" as="sourcePoint" />
            <mxPoint x="300" y="500" as="targetPoint" />
            <mxPoint as="offset" />
          </mxGeometry>
        </mxCell>
        <mxCell id="UEQAElvjvlcLZ4bycSxP-1" value="initiatePairing(wristbandID)" style="html=1;align=left;spacingLeft=2;endArrow=block;rounded=0;edgeStyle=orthogonalEdgeStyle;curved=0;rounded=0;fontSize=12;startSize=8;endSize=8;" edge="1" parent="1">
          <mxGeometry relative="1" as="geometry">
            <mxPoint x="590" y="450" as="sourcePoint" />
            <Array as="points">
              <mxPoint x="620" y="480" />
            </Array>
            <mxPoint x="595" y="480.03999999999996" as="targetPoint" />
          </mxGeometry>
        </mxCell>
      </root>
    </mxGraphModel>
  </diagram>
  <diagram id="DhOFPWaKK2n4Q0cjY7Am" name="Live Sensor Data">
    <mxGraphModel dx="1049" dy="847" grid="0" gridSize="10" guides="1" tooltips="1" connect="1" arrows="1" fold="1" page="0" pageScale="1" pageWidth="827" pageHeight="1169" math="0" shadow="0">
      <root>
        <mxCell id="0" />
        <mxCell id="1" parent="0" />
        <mxCell id="IZ5HJWcbSJu1AobCsOnL-1" value="&lt;b&gt;:System&lt;/b&gt;" style="shape=umlLifeline;perimeter=lifelinePerimeter;whiteSpace=wrap;html=1;container=1;dropTarget=0;collapsible=0;recursiveResize=0;outlineConnect=0;portConstraint=eastwest;newEdgeStyle={&quot;curved&quot;:0,&quot;rounded&quot;:0};" parent="1" vertex="1">
          <mxGeometry x="383" y="198" width="100" height="315" as="geometry" />
        </mxCell>
        <mxCell id="tZbcArfNPAnoXkrzeiHv-8" value="storeSensorData(heartRate,&amp;nbsp;&lt;div&gt;bloodPressure,&lt;span style=&quot;background-color: light-dark(#ffffff, var(--ge-dark-color, #121212)); color: light-dark(rgb(0, 0, 0), rgb(255, 255, 255));&quot;&gt;temprature,&amp;nbsp;&lt;/span&gt;&lt;/div&gt;&lt;div&gt;&lt;span style=&quot;background-color: light-dark(#ffffff, var(--ge-dark-color, #121212)); color: light-dark(rgb(0, 0, 0), rgb(255, 255, 255));&quot;&gt;sugarLeve, pulseRatel)&lt;/span&gt;&lt;/div&gt;" style="html=1;align=left;spacingLeft=2;endArrow=block;rounded=0;edgeStyle=orthogonalEdgeStyle;curved=0;rounded=0;fontSize=12;startSize=8;endSize=8;" edge="1" parent="IZ5HJWcbSJu1AobCsOnL-1">
          <mxGeometry relative="1" as="geometry">
            <mxPoint x="51" y="225" as="sourcePoint" />
            <Array as="points">
              <mxPoint x="81" y="255" />
            </Array>
            <mxPoint x="56" y="255.03999999999996" as="targetPoint" />
          </mxGeometry>
        </mxCell>
        <mxCell id="tZbcArfNPAnoXkrzeiHv-9" value="storeSensorData(heartRate,&amp;nbsp;&lt;div&gt;bloodPressure,&lt;span style=&quot;background-color: light-dark(#ffffff, var(--ge-dark-color, #121212)); color: light-dark(rgb(0, 0, 0), rgb(255, 255, 255));&quot;&gt;temprature,&amp;nbsp;&lt;/span&gt;&lt;/div&gt;&lt;div&gt;&lt;span style=&quot;background-color: light-dark(#ffffff, var(--ge-dark-color, #121212)); color: light-dark(rgb(0, 0, 0), rgb(255, 255, 255));&quot;&gt;sugarLevel, pulseRate)&lt;/span&gt;&lt;/div&gt;" style="html=1;align=left;spacingLeft=2;endArrow=block;rounded=0;edgeStyle=orthogonalEdgeStyle;curved=0;rounded=0;fontSize=12;startSize=8;endSize=8;" edge="1" parent="IZ5HJWcbSJu1AobCsOnL-1">
          <mxGeometry relative="1" as="geometry">
            <mxPoint x="51" y="148" as="sourcePoint" />
            <Array as="points">
              <mxPoint x="81" y="178" />
            </Array>
            <mxPoint x="56" y="178.03999999999996" as="targetPoint" />
          </mxGeometry>
        </mxCell>
        <mxCell id="IZ5HJWcbSJu1AobCsOnL-4" value="" style="shape=umlLifeline;perimeter=lifelinePerimeter;whiteSpace=wrap;html=1;container=0;dropTarget=0;collapsible=0;recursiveResize=0;outlineConnect=0;portConstraint=eastwest;newEdgeStyle={&quot;curved&quot;:0,&quot;rounded&quot;:0};participant=umlActor;" parent="1" vertex="1">
          <mxGeometry x="76" y="212" width="20" height="307" as="geometry" />
        </mxCell>
        <mxCell id="IZ5HJWcbSJu1AobCsOnL-6" value="openLiveSensorScreen()" style="html=1;verticalAlign=bottom;endArrow=block;curved=0;rounded=0;" parent="1" edge="1">
          <mxGeometry x="0.003" width="80" relative="1" as="geometry">
            <mxPoint x="85.5" y="272" as="sourcePoint" />
            <mxPoint x="432.5" y="272" as="targetPoint" />
            <mxPoint as="offset" />
          </mxGeometry>
        </mxCell>
        <mxCell id="IZ5HJWcbSJu1AobCsOnL-7" value="screen displayed to show live values from sensor" style="html=1;verticalAlign=bottom;endArrow=open;dashed=1;endSize=8;curved=0;rounded=0;" parent="1" edge="1">
          <mxGeometry relative="1" as="geometry">
            <mxPoint x="432.5" y="315.5" as="sourcePoint" />
            <mxPoint x="85.5" y="315.5" as="targetPoint" />
            <mxPoint as="offset" />
          </mxGeometry>
        </mxCell>
        <mxCell id="IZ5HJWcbSJu1AobCsOnL-8" value="&lt;b&gt;User&lt;br&gt;&lt;/b&gt;&lt;div&gt;&lt;b&gt;Mother / Doctor&lt;/b&gt;&lt;/div&gt;" style="text;html=1;align=center;verticalAlign=middle;resizable=0;points=[];autosize=1;strokeColor=none;fillColor=none;" parent="1" vertex="1">
          <mxGeometry x="33" y="166" width="107" height="41" as="geometry" />
        </mxCell>
        <mxCell id="tZbcArfNPAnoXkrzeiHv-1" value="Loop" style="shape=umlFrame;whiteSpace=wrap;html=1;pointerEvents=0;" vertex="1" parent="1">
          <mxGeometry x="-1" y="327" width="637" height="168" as="geometry" />
        </mxCell>
        <mxCell id="tZbcArfNPAnoXkrzeiHv-10" value="&lt;span style=&quot;font-size: 12px; text-align: left;&quot;&gt;heartRate,&amp;nbsp;&lt;/span&gt;&lt;span style=&quot;font-size: 12px; text-align: left; background-color: light-dark(#ffffff, var(--ge-dark-color, #121212)); color: light-dark(rgb(0, 0, 0), rgb(255, 255, 255));&quot;&gt;bloodPressure,&lt;/span&gt;&lt;span style=&quot;font-size: 12px; text-align: left; background-color: light-dark(#ffffff, var(--ge-dark-color, #121212)); color: light-dark(rgb(0, 0, 0), rgb(255, 255, 255));&quot;&gt;temprature,&amp;nbsp;&lt;/span&gt;&lt;span style=&quot;font-size: 12px; text-align: left; color: light-dark(rgb(0, 0, 0), rgb(255, 255, 255)); background-color: light-dark(#ffffff, var(--ge-dark-color, #121212));&quot;&gt;sugarLevel, pulseRate&lt;/span&gt;" style="html=1;verticalAlign=bottom;endArrow=open;dashed=1;endSize=8;curved=0;rounded=0;" edge="1" parent="1" target="IZ5HJWcbSJu1AobCsOnL-4">
          <mxGeometry relative="1" as="geometry">
            <mxPoint x="437" y="401" as="sourcePoint" />
            <mxPoint x="84" y="403" as="targetPoint" />
            <mxPoint as="offset" />
          </mxGeometry>
        </mxCell>
      </root>
    </mxGraphModel>
  </diagram>
  <diagram id="34Anwa1zmgRzib_1__5S" name="Prescribe Medicine">
    <mxGraphModel dx="961" dy="47" grid="0" gridSize="10" guides="1" tooltips="1" connect="1" arrows="1" fold="1" page="0" pageScale="1" pageWidth="827" pageHeight="1169" math="0" shadow="0">
      <root>
        <mxCell id="0" />
        <mxCell id="1" parent="0" />
        <mxCell id="5WfwffEhfJJy-L1a1V98-1" value="&lt;b&gt;&lt;u&gt;:System&lt;/u&gt;&lt;/b&gt;" style="shape=umlLifeline;perimeter=lifelinePerimeter;whiteSpace=wrap;html=1;container=1;dropTarget=0;collapsible=0;recursiveResize=0;outlineConnect=0;portConstraint=eastwest;newEdgeStyle={&quot;curved&quot;:0,&quot;rounded&quot;:0};" vertex="1" parent="1">
          <mxGeometry x="484" y="893" width="100" height="664" as="geometry" />
        </mxCell>
        <mxCell id="5WfwffEhfJJy-L1a1V98-2" value="selectPatient(patientId)" style="html=1;verticalAlign=bottom;endArrow=block;curved=0;rounded=0;" edge="1" parent="5WfwffEhfJJy-L1a1V98-1" source="5WfwffEhfJJy-L1a1V98-6">
          <mxGeometry width="80" relative="1" as="geometry">
            <mxPoint x="-250" y="332" as="sourcePoint" />
            <mxPoint x="45" y="332" as="targetPoint" />
          </mxGeometry>
        </mxCell>
        <mxCell id="5WfwffEhfJJy-L1a1V98-3" value="patient details displayed" style="html=1;verticalAlign=bottom;endArrow=open;dashed=1;endSize=8;curved=0;rounded=0;" edge="1" parent="5WfwffEhfJJy-L1a1V98-1" target="5WfwffEhfJJy-L1a1V98-6">
          <mxGeometry relative="1" as="geometry">
            <mxPoint x="45" y="382" as="sourcePoint" />
            <mxPoint x="-250" y="382" as="targetPoint" />
          </mxGeometry>
        </mxCell>
        <mxCell id="5WfwffEhfJJy-L1a1V98-4" value="navigateToPrescription()" style="html=1;verticalAlign=bottom;endArrow=block;curved=0;rounded=0;" edge="1" parent="5WfwffEhfJJy-L1a1V98-1" source="5WfwffEhfJJy-L1a1V98-6">
          <mxGeometry width="80" relative="1" as="geometry">
            <mxPoint x="-252" y="424" as="sourcePoint" />
            <mxPoint x="43" y="424" as="targetPoint" />
          </mxGeometry>
        </mxCell>
        <mxCell id="5WfwffEhfJJy-L1a1V98-5" value="notifyMother(patientId, &quot;New Prescription Assigned&quot;)" style="html=1;align=left;spacingLeft=2;endArrow=block;rounded=0;edgeStyle=orthogonalEdgeStyle;curved=0;rounded=0;fontSize=12;startSize=8;endSize=8;" edge="1" parent="5WfwffEhfJJy-L1a1V98-1">
          <mxGeometry relative="1" as="geometry">
            <mxPoint x="49" y="604" as="sourcePoint" />
            <Array as="points">
              <mxPoint x="79" y="634" />
            </Array>
            <mxPoint x="54" y="634.04" as="targetPoint" />
          </mxGeometry>
        </mxCell>
        <mxCell id="5WfwffEhfJJy-L1a1V98-6" value="" style="shape=umlLifeline;perimeter=lifelinePerimeter;whiteSpace=wrap;html=1;container=0;dropTarget=0;collapsible=0;recursiveResize=0;outlineConnect=0;portConstraint=eastwest;newEdgeStyle={&quot;curved&quot;:0,&quot;rounded&quot;:0};participant=umlActor;" vertex="1" parent="1">
          <mxGeometry x="133" y="903" width="20" height="633" as="geometry" />
        </mxCell>
        <mxCell id="5WfwffEhfJJy-L1a1V98-7" value="openApp()" style="html=1;verticalAlign=bottom;endArrow=block;curved=0;rounded=0;" edge="1" parent="1" target="5WfwffEhfJJy-L1a1V98-1">
          <mxGeometry width="80" relative="1" as="geometry">
            <mxPoint x="148" y="1023" as="sourcePoint" />
            <mxPoint x="443" y="1023" as="targetPoint" />
          </mxGeometry>
        </mxCell>
        <mxCell id="5WfwffEhfJJy-L1a1V98-8" value="Home Screen" style="html=1;verticalAlign=bottom;endArrow=open;dashed=1;endSize=8;curved=0;rounded=0;" edge="1" parent="1" source="5WfwffEhfJJy-L1a1V98-1">
          <mxGeometry relative="1" as="geometry">
            <mxPoint x="438" y="1077.66" as="sourcePoint" />
            <mxPoint x="148" y="1077.66" as="targetPoint" />
          </mxGeometry>
        </mxCell>
        <mxCell id="5WfwffEhfJJy-L1a1V98-9" value="&lt;b&gt;Doctor&lt;/b&gt;" style="text;html=1;align=center;verticalAlign=middle;resizable=0;points=[];autosize=1;strokeColor=none;fillColor=none;" vertex="1" parent="1">
          <mxGeometry x="115" y="860" width="57" height="26" as="geometry" />
        </mxCell>
        <mxCell id="5WfwffEhfJJy-L1a1V98-10" value="reuestLinkedPatients(doctorID)" style="html=1;verticalAlign=bottom;endArrow=block;curved=0;rounded=0;" edge="1" parent="1" target="5WfwffEhfJJy-L1a1V98-1">
          <mxGeometry width="80" relative="1" as="geometry">
            <mxPoint x="148" y="1133" as="sourcePoint" />
            <mxPoint x="443" y="1133" as="targetPoint" />
          </mxGeometry>
        </mxCell>
        <mxCell id="5WfwffEhfJJy-L1a1V98-11" value="display linked patients" style="html=1;verticalAlign=bottom;endArrow=open;dashed=1;endSize=8;curved=0;rounded=0;" edge="1" parent="1" source="5WfwffEhfJJy-L1a1V98-1">
          <mxGeometry relative="1" as="geometry">
            <mxPoint x="443" y="1183" as="sourcePoint" />
            <mxPoint x="148" y="1183" as="targetPoint" />
          </mxGeometry>
        </mxCell>
        <mxCell id="5WfwffEhfJJy-L1a1V98-12" value="enterPrescriptionDetails(medicineName, dosage, frequency,before_AfterMeal)" style="html=1;verticalAlign=bottom;endArrow=block;curved=0;rounded=0;" edge="1" parent="1" target="5WfwffEhfJJy-L1a1V98-1">
          <mxGeometry width="80" relative="1" as="geometry">
            <mxPoint x="142.78571428571428" y="1409.5" as="sourcePoint" />
            <mxPoint x="447.5" y="1409.5" as="targetPoint" />
          </mxGeometry>
        </mxCell>
        <mxCell id="5WfwffEhfJJy-L1a1V98-13" value="medicine prescription screen displayed" style="html=1;verticalAlign=bottom;endArrow=open;dashed=1;endSize=8;curved=0;rounded=0;" edge="1" parent="1" source="5WfwffEhfJJy-L1a1V98-1">
          <mxGeometry relative="1" as="geometry">
            <mxPoint x="447.4999999999999" y="1366" as="sourcePoint" />
            <mxPoint x="143.06521739130432" y="1366" as="targetPoint" />
          </mxGeometry>
        </mxCell>
        <mxCell id="5WfwffEhfJJy-L1a1V98-14" value="prescription saved successfully" style="html=1;verticalAlign=bottom;endArrow=open;dashed=1;endSize=8;curved=0;rounded=0;" edge="1" parent="1" source="5WfwffEhfJJy-L1a1V98-1">
          <mxGeometry relative="1" as="geometry">
            <mxPoint x="447.4999999999999" y="1486" as="sourcePoint" />
            <mxPoint x="143.06521739130432" y="1486" as="targetPoint" />
          </mxGeometry>
        </mxCell>
        <mxCell id="5WfwffEhfJJy-L1a1V98-15" value="submitPrescription(patientId, prescription)" style="html=1;verticalAlign=bottom;endArrow=block;curved=0;rounded=0;" edge="1" parent="1" target="5WfwffEhfJJy-L1a1V98-1">
          <mxGeometry width="80" relative="1" as="geometry">
            <mxPoint x="141.99571428571426" y="1444" as="sourcePoint" />
            <mxPoint x="446.71000000000004" y="1444" as="targetPoint" />
          </mxGeometry>
        </mxCell>
      </root>
    </mxGraphModel>
  </diagram>
  <diagram id="KR_jBHKVJN9CUmo2qu4w" name="View Prescribed Medicine">
    <mxGraphModel dx="1192" dy="298" grid="0" gridSize="10" guides="1" tooltips="1" connect="1" arrows="1" fold="1" page="0" pageScale="1" pageWidth="827" pageHeight="1169" math="0" shadow="0">
      <root>
        <mxCell id="0" />
        <mxCell id="1" parent="0" />
        <mxCell id="zGDEtAntjKZSs1WJ_YsZ-1" value="&lt;b&gt;&lt;u&gt;:System&lt;/u&gt;&lt;/b&gt;" style="shape=umlLifeline;perimeter=lifelinePerimeter;whiteSpace=wrap;html=1;container=1;dropTarget=0;collapsible=0;recursiveResize=0;outlineConnect=0;portConstraint=eastwest;newEdgeStyle={&quot;curved&quot;:0,&quot;rounded&quot;:0};" vertex="1" parent="1">
          <mxGeometry x="322" y="503" width="100" height="518" as="geometry" />
        </mxCell>
        <mxCell id="zGDEtAntjKZSs1WJ_YsZ-2" value="selectPatient(patientId)" style="html=1;verticalAlign=bottom;endArrow=block;curved=0;rounded=0;" edge="1" parent="zGDEtAntjKZSs1WJ_YsZ-1" source="zGDEtAntjKZSs1WJ_YsZ-6">
          <mxGeometry width="80" relative="1" as="geometry">
            <mxPoint x="-250" y="332" as="sourcePoint" />
            <mxPoint x="45" y="332" as="targetPoint" />
          </mxGeometry>
        </mxCell>
        <mxCell id="zGDEtAntjKZSs1WJ_YsZ-3" value="patient details displayed" style="html=1;verticalAlign=bottom;endArrow=open;dashed=1;endSize=8;curved=0;rounded=0;" edge="1" parent="zGDEtAntjKZSs1WJ_YsZ-1" target="zGDEtAntjKZSs1WJ_YsZ-6">
          <mxGeometry relative="1" as="geometry">
            <mxPoint x="45" y="382" as="sourcePoint" />
            <mxPoint x="-250" y="382" as="targetPoint" />
          </mxGeometry>
        </mxCell>
        <mxCell id="zGDEtAntjKZSs1WJ_YsZ-4" value="navigateToPrescription()" style="html=1;verticalAlign=bottom;endArrow=block;curved=0;rounded=0;" edge="1" parent="zGDEtAntjKZSs1WJ_YsZ-1" source="zGDEtAntjKZSs1WJ_YsZ-6">
          <mxGeometry width="80" relative="1" as="geometry">
            <mxPoint x="-252" y="424" as="sourcePoint" />
            <mxPoint x="43" y="424" as="targetPoint" />
          </mxGeometry>
        </mxCell>
        <mxCell id="zGDEtAntjKZSs1WJ_YsZ-6" value="" style="shape=umlLifeline;perimeter=lifelinePerimeter;whiteSpace=wrap;html=1;container=0;dropTarget=0;collapsible=0;recursiveResize=0;outlineConnect=0;portConstraint=eastwest;newEdgeStyle={&quot;curved&quot;:0,&quot;rounded&quot;:0};participant=umlActor;" vertex="1" parent="1">
          <mxGeometry x="-29" y="513" width="20" height="526" as="geometry" />
        </mxCell>
        <mxCell id="zGDEtAntjKZSs1WJ_YsZ-7" value="openApp()" style="html=1;verticalAlign=bottom;endArrow=block;curved=0;rounded=0;" edge="1" parent="1" target="zGDEtAntjKZSs1WJ_YsZ-1">
          <mxGeometry width="80" relative="1" as="geometry">
            <mxPoint x="-14" y="633" as="sourcePoint" />
            <mxPoint x="281" y="633" as="targetPoint" />
          </mxGeometry>
        </mxCell>
        <mxCell id="zGDEtAntjKZSs1WJ_YsZ-8" value="Home /&amp;nbsp; Dashboard Displayed" style="html=1;verticalAlign=bottom;endArrow=open;dashed=1;endSize=8;curved=0;rounded=0;" edge="1" parent="1" source="zGDEtAntjKZSs1WJ_YsZ-1">
          <mxGeometry relative="1" as="geometry">
            <mxPoint x="276" y="687.6600000000001" as="sourcePoint" />
            <mxPoint x="-14" y="687.6600000000001" as="targetPoint" />
          </mxGeometry>
        </mxCell>
        <mxCell id="zGDEtAntjKZSs1WJ_YsZ-9" value="&lt;b&gt;Doctor&lt;/b&gt;" style="text;html=1;align=center;verticalAlign=middle;resizable=0;points=[];autosize=1;strokeColor=none;fillColor=none;" vertex="1" parent="1">
          <mxGeometry x="-47" y="470" width="57" height="26" as="geometry" />
        </mxCell>
        <mxCell id="zGDEtAntjKZSs1WJ_YsZ-10" value="reuestLinkedPatients(doctorID)" style="html=1;verticalAlign=bottom;endArrow=block;curved=0;rounded=0;" edge="1" parent="1" target="zGDEtAntjKZSs1WJ_YsZ-1">
          <mxGeometry width="80" relative="1" as="geometry">
            <mxPoint x="-14" y="743" as="sourcePoint" />
            <mxPoint x="281" y="743" as="targetPoint" />
          </mxGeometry>
        </mxCell>
        <mxCell id="zGDEtAntjKZSs1WJ_YsZ-11" value="display linked patients" style="html=1;verticalAlign=bottom;endArrow=open;dashed=1;endSize=8;curved=0;rounded=0;" edge="1" parent="1" source="zGDEtAntjKZSs1WJ_YsZ-1">
          <mxGeometry relative="1" as="geometry">
            <mxPoint x="281" y="793" as="sourcePoint" />
            <mxPoint x="-14" y="793" as="targetPoint" />
          </mxGeometry>
        </mxCell>
        <mxCell id="zGDEtAntjKZSs1WJ_YsZ-13" value="medicine prescriptions displayed" style="html=1;verticalAlign=bottom;endArrow=open;dashed=1;endSize=8;curved=0;rounded=0;" edge="1" parent="1" source="zGDEtAntjKZSs1WJ_YsZ-1">
          <mxGeometry relative="1" as="geometry">
            <mxPoint x="285.4999999999999" y="976" as="sourcePoint" />
            <mxPoint x="-18.934782608695684" y="976" as="targetPoint" />
          </mxGeometry>
        </mxCell>
        <mxCell id="zGDEtAntjKZSs1WJ_YsZ-16" value="&lt;b&gt;&lt;u&gt;:System&lt;/u&gt;&lt;/b&gt;" style="shape=umlLifeline;perimeter=lifelinePerimeter;whiteSpace=wrap;html=1;container=1;dropTarget=0;collapsible=0;recursiveResize=0;outlineConnect=0;portConstraint=eastwest;newEdgeStyle={&quot;curved&quot;:0,&quot;rounded&quot;:0};" vertex="1" parent="1">
          <mxGeometry x="320" y="1119" width="100" height="372" as="geometry" />
        </mxCell>
        <mxCell id="zGDEtAntjKZSs1WJ_YsZ-19" value="navigateToMyPrescription()" style="html=1;verticalAlign=bottom;endArrow=block;curved=0;rounded=0;" edge="1" parent="zGDEtAntjKZSs1WJ_YsZ-16">
          <mxGeometry width="80" relative="1" as="geometry">
            <mxPoint x="-341.67647058823536" y="234" as="sourcePoint" />
            <mxPoint x="49.5" y="234" as="targetPoint" />
          </mxGeometry>
        </mxCell>
        <mxCell id="zGDEtAntjKZSs1WJ_YsZ-20" value="" style="shape=umlLifeline;perimeter=lifelinePerimeter;whiteSpace=wrap;html=1;container=0;dropTarget=0;collapsible=0;recursiveResize=0;outlineConnect=0;portConstraint=eastwest;newEdgeStyle={&quot;curved&quot;:0,&quot;rounded&quot;:0};participant=umlActor;" vertex="1" parent="1">
          <mxGeometry x="-31" y="1129" width="20" height="354" as="geometry" />
        </mxCell>
        <mxCell id="zGDEtAntjKZSs1WJ_YsZ-21" value="openApp()" style="html=1;verticalAlign=bottom;endArrow=block;curved=0;rounded=0;" edge="1" target="zGDEtAntjKZSs1WJ_YsZ-16" parent="1">
          <mxGeometry width="80" relative="1" as="geometry">
            <mxPoint x="-16" y="1249" as="sourcePoint" />
            <mxPoint x="279" y="1249" as="targetPoint" />
          </mxGeometry>
        </mxCell>
        <mxCell id="zGDEtAntjKZSs1WJ_YsZ-22" value="Home /&amp;nbsp; Dashboard Displayed" style="html=1;verticalAlign=bottom;endArrow=open;dashed=1;endSize=8;curved=0;rounded=0;" edge="1" source="zGDEtAntjKZSs1WJ_YsZ-16" parent="1">
          <mxGeometry relative="1" as="geometry">
            <mxPoint x="274" y="1303.66" as="sourcePoint" />
            <mxPoint x="-16" y="1303.66" as="targetPoint" />
          </mxGeometry>
        </mxCell>
        <mxCell id="zGDEtAntjKZSs1WJ_YsZ-23" value="&lt;b&gt;Mother&lt;/b&gt;" style="text;html=1;align=center;verticalAlign=middle;resizable=0;points=[];autosize=1;strokeColor=none;fillColor=none;" vertex="1" parent="1">
          <mxGeometry x="-49" y="1086" width="58" height="26" as="geometry" />
        </mxCell>
        <mxCell id="zGDEtAntjKZSs1WJ_YsZ-26" value="medicine prescriptions displayed if available" style="html=1;verticalAlign=bottom;endArrow=open;dashed=1;endSize=8;curved=0;rounded=0;" edge="1" parent="1">
          <mxGeometry relative="1" as="geometry">
            <mxPoint x="369.5" y="1422" as="sourcePoint" />
            <mxPoint x="-20.934782608695684" y="1422" as="targetPoint" />
          </mxGeometry>
        </mxCell>
      </root>
    </mxGraphModel>
  </diagram>
  <diagram id="-nRjyg3YhDDyFhHg_Fvp" name="View Prescribed Meal Plan">
    <mxGraphModel dx="673" dy="593" grid="1" gridSize="10" guides="1" tooltips="1" connect="1" arrows="1" fold="1" page="1" pageScale="1" pageWidth="850" pageHeight="1100" math="0" shadow="0">
      <root>
        <mxCell id="0" />
        <mxCell id="1" parent="0" />
        <mxCell id="_FNoU7fI-wl-jC42_lOA-1" value="&lt;b&gt;&lt;u&gt;:System&lt;/u&gt;&lt;/b&gt;" style="shape=umlLifeline;perimeter=lifelinePerimeter;whiteSpace=wrap;html=1;container=1;dropTarget=0;collapsible=0;recursiveResize=0;outlineConnect=0;portConstraint=eastwest;newEdgeStyle={&quot;curved&quot;:0,&quot;rounded&quot;:0};" vertex="1" parent="1">
          <mxGeometry x="831" y="473" width="100" height="518" as="geometry" />
        </mxCell>
        <mxCell id="_FNoU7fI-wl-jC42_lOA-2" value="selectPatient(patientId)" style="html=1;verticalAlign=bottom;endArrow=block;curved=0;rounded=0;" edge="1" parent="_FNoU7fI-wl-jC42_lOA-1" source="_FNoU7fI-wl-jC42_lOA-5">
          <mxGeometry width="80" relative="1" as="geometry">
            <mxPoint x="-250" y="332" as="sourcePoint" />
            <mxPoint x="45" y="332" as="targetPoint" />
          </mxGeometry>
        </mxCell>
        <mxCell id="_FNoU7fI-wl-jC42_lOA-3" value="patient details displayed" style="html=1;verticalAlign=bottom;endArrow=open;dashed=1;endSize=8;curved=0;rounded=0;" edge="1" parent="_FNoU7fI-wl-jC42_lOA-1" target="_FNoU7fI-wl-jC42_lOA-5">
          <mxGeometry relative="1" as="geometry">
            <mxPoint x="45" y="382" as="sourcePoint" />
            <mxPoint x="-250" y="382" as="targetPoint" />
          </mxGeometry>
        </mxCell>
        <mxCell id="_FNoU7fI-wl-jC42_lOA-4" value="navigateToMealPlan()" style="html=1;verticalAlign=bottom;endArrow=block;curved=0;rounded=0;" edge="1" parent="_FNoU7fI-wl-jC42_lOA-1" source="_FNoU7fI-wl-jC42_lOA-5">
          <mxGeometry width="80" relative="1" as="geometry">
            <mxPoint x="-252" y="424" as="sourcePoint" />
            <mxPoint x="43" y="424" as="targetPoint" />
          </mxGeometry>
        </mxCell>
        <mxCell id="_FNoU7fI-wl-jC42_lOA-5" value="" style="shape=umlLifeline;perimeter=lifelinePerimeter;whiteSpace=wrap;html=1;container=0;dropTarget=0;collapsible=0;recursiveResize=0;outlineConnect=0;portConstraint=eastwest;newEdgeStyle={&quot;curved&quot;:0,&quot;rounded&quot;:0};participant=umlActor;" vertex="1" parent="1">
          <mxGeometry x="480" y="483" width="20" height="526" as="geometry" />
        </mxCell>
        <mxCell id="_FNoU7fI-wl-jC42_lOA-6" value="openApp()" style="html=1;verticalAlign=bottom;endArrow=block;curved=0;rounded=0;" edge="1" parent="1" target="_FNoU7fI-wl-jC42_lOA-1">
          <mxGeometry width="80" relative="1" as="geometry">
            <mxPoint x="495" y="603" as="sourcePoint" />
            <mxPoint x="790" y="603" as="targetPoint" />
          </mxGeometry>
        </mxCell>
        <mxCell id="_FNoU7fI-wl-jC42_lOA-7" value="Home /&amp;nbsp; Dashboard Displayed" style="html=1;verticalAlign=bottom;endArrow=open;dashed=1;endSize=8;curved=0;rounded=0;" edge="1" parent="1" source="_FNoU7fI-wl-jC42_lOA-1">
          <mxGeometry relative="1" as="geometry">
            <mxPoint x="785" y="657.6600000000001" as="sourcePoint" />
            <mxPoint x="495" y="657.6600000000001" as="targetPoint" />
          </mxGeometry>
        </mxCell>
        <mxCell id="_FNoU7fI-wl-jC42_lOA-8" value="&lt;b&gt;Doctor&lt;/b&gt;" style="text;html=1;align=center;verticalAlign=middle;resizable=0;points=[];autosize=1;strokeColor=none;fillColor=none;" vertex="1" parent="1">
          <mxGeometry x="462" y="440" width="57" height="26" as="geometry" />
        </mxCell>
        <mxCell id="_FNoU7fI-wl-jC42_lOA-9" value="requestLinkedPatients(doctorID)" style="html=1;verticalAlign=bottom;endArrow=block;curved=0;rounded=0;" edge="1" parent="1" target="_FNoU7fI-wl-jC42_lOA-1">
          <mxGeometry width="80" relative="1" as="geometry">
            <mxPoint x="495" y="713" as="sourcePoint" />
            <mxPoint x="790" y="713" as="targetPoint" />
          </mxGeometry>
        </mxCell>
        <mxCell id="_FNoU7fI-wl-jC42_lOA-10" value="displays linked patients" style="html=1;verticalAlign=bottom;endArrow=open;dashed=1;endSize=8;curved=0;rounded=0;" edge="1" parent="1" source="_FNoU7fI-wl-jC42_lOA-1">
          <mxGeometry relative="1" as="geometry">
            <mxPoint x="790" y="763" as="sourcePoint" />
            <mxPoint x="495" y="763" as="targetPoint" />
          </mxGeometry>
        </mxCell>
        <mxCell id="_FNoU7fI-wl-jC42_lOA-11" value="patient meal plan displayed" style="html=1;verticalAlign=bottom;endArrow=open;dashed=1;endSize=8;curved=0;rounded=0;" edge="1" parent="1" source="_FNoU7fI-wl-jC42_lOA-1">
          <mxGeometry relative="1" as="geometry">
            <mxPoint x="794.4999999999999" y="946" as="sourcePoint" />
            <mxPoint x="490.0652173913043" y="946" as="targetPoint" />
          </mxGeometry>
        </mxCell>
        <mxCell id="_FNoU7fI-wl-jC42_lOA-12" value="&lt;b&gt;&lt;u&gt;:System&lt;/u&gt;&lt;/b&gt;" style="shape=umlLifeline;perimeter=lifelinePerimeter;whiteSpace=wrap;html=1;container=1;dropTarget=0;collapsible=0;recursiveResize=0;outlineConnect=0;portConstraint=eastwest;newEdgeStyle={&quot;curved&quot;:0,&quot;rounded&quot;:0};" vertex="1" parent="1">
          <mxGeometry x="829" y="1089" width="100" height="372" as="geometry" />
        </mxCell>
        <mxCell id="_FNoU7fI-wl-jC42_lOA-13" value="navigateToMyPrescription()" style="html=1;verticalAlign=bottom;endArrow=block;curved=0;rounded=0;" edge="1" parent="_FNoU7fI-wl-jC42_lOA-12">
          <mxGeometry width="80" relative="1" as="geometry">
            <mxPoint x="-341.67647058823536" y="234" as="sourcePoint" />
            <mxPoint x="49.5" y="234" as="targetPoint" />
          </mxGeometry>
        </mxCell>
        <mxCell id="_FNoU7fI-wl-jC42_lOA-14" value="" style="shape=umlLifeline;perimeter=lifelinePerimeter;whiteSpace=wrap;html=1;container=0;dropTarget=0;collapsible=0;recursiveResize=0;outlineConnect=0;portConstraint=eastwest;newEdgeStyle={&quot;curved&quot;:0,&quot;rounded&quot;:0};participant=umlActor;" vertex="1" parent="1">
          <mxGeometry x="478" y="1099" width="20" height="354" as="geometry" />
        </mxCell>
        <mxCell id="_FNoU7fI-wl-jC42_lOA-15" value="openApp()" style="html=1;verticalAlign=bottom;endArrow=block;curved=0;rounded=0;" edge="1" parent="1" target="_FNoU7fI-wl-jC42_lOA-12">
          <mxGeometry width="80" relative="1" as="geometry">
            <mxPoint x="493" y="1219" as="sourcePoint" />
            <mxPoint x="788" y="1219" as="targetPoint" />
          </mxGeometry>
        </mxCell>
        <mxCell id="_FNoU7fI-wl-jC42_lOA-16" value="Home /&amp;nbsp; Dashboard Displayed" style="html=1;verticalAlign=bottom;endArrow=open;dashed=1;endSize=8;curved=0;rounded=0;" edge="1" parent="1" source="_FNoU7fI-wl-jC42_lOA-12">
          <mxGeometry relative="1" as="geometry">
            <mxPoint x="783" y="1273.66" as="sourcePoint" />
            <mxPoint x="493" y="1273.66" as="targetPoint" />
          </mxGeometry>
        </mxCell>
        <mxCell id="_FNoU7fI-wl-jC42_lOA-17" value="&lt;b&gt;Mother&lt;/b&gt;" style="text;html=1;align=center;verticalAlign=middle;resizable=0;points=[];autosize=1;strokeColor=none;fillColor=none;" vertex="1" parent="1">
          <mxGeometry x="460" y="1056" width="58" height="26" as="geometry" />
        </mxCell>
        <mxCell id="_FNoU7fI-wl-jC42_lOA-18" value="Patient Meal Plan Displayed" style="html=1;verticalAlign=bottom;endArrow=open;dashed=1;endSize=8;curved=0;rounded=0;" edge="1" parent="1">
          <mxGeometry relative="1" as="geometry">
            <mxPoint x="878.5" y="1392" as="sourcePoint" />
            <mxPoint x="488.0652173913043" y="1392" as="targetPoint" />
          </mxGeometry>
        </mxCell>
      </root>
    </mxGraphModel>
  </diagram>
  <diagram id="NVuDyGPL-fZ-ZHWS5TE8" name="Mark Risk (T /F)">
    <mxGraphModel dx="673" dy="593" grid="1" gridSize="10" guides="1" tooltips="1" connect="1" arrows="1" fold="1" page="1" pageScale="1" pageWidth="850" pageHeight="1100" math="0" shadow="0">
      <root>
        <mxCell id="0" />
        <mxCell id="1" parent="0" />
        <mxCell id="zsUwkZ8he_POYBpPR2Mp-1" value="&lt;b&gt;:System&lt;/b&gt;" style="shape=umlLifeline;perimeter=lifelinePerimeter;whiteSpace=wrap;html=1;container=1;dropTarget=0;collapsible=0;recursiveResize=0;outlineConnect=0;portConstraint=eastwest;newEdgeStyle={&quot;curved&quot;:0,&quot;rounded&quot;:0};" parent="1" vertex="1">
          <mxGeometry x="503" y="173" width="100" height="517" as="geometry" />
        </mxCell>
        <mxCell id="zsUwkZ8he_POYBpPR2Mp-4" value="submitRiskDecision(riskId, isTrue)" style="html=1;verticalAlign=bottom;endArrow=block;curved=0;rounded=0;" parent="zsUwkZ8he_POYBpPR2Mp-1" edge="1">
          <mxGeometry width="80" relative="1" as="geometry">
            <mxPoint x="-250" y="332" as="sourcePoint" />
            <mxPoint x="45" y="332" as="targetPoint" />
          </mxGeometry>
        </mxCell>
        <mxCell id="zsUwkZ8he_POYBpPR2Mp-5" value="decision saved confirmation" style="html=1;verticalAlign=bottom;endArrow=open;dashed=1;endSize=8;curved=0;rounded=0;" parent="zsUwkZ8he_POYBpPR2Mp-1" edge="1">
          <mxGeometry relative="1" as="geometry">
            <mxPoint x="45" y="382" as="sourcePoint" />
            <mxPoint x="-250" y="382" as="targetPoint" />
          </mxGeometry>
        </mxCell>
        <mxCell id="zsUwkZ8he_POYBpPR2Mp-7" value="" style="shape=umlLifeline;perimeter=lifelinePerimeter;whiteSpace=wrap;html=1;container=0;dropTarget=0;collapsible=0;recursiveResize=0;outlineConnect=0;portConstraint=eastwest;newEdgeStyle={&quot;curved&quot;:0,&quot;rounded&quot;:0};participant=umlActor;" parent="1" vertex="1">
          <mxGeometry x="238" y="183" width="20" height="497" as="geometry" />
        </mxCell>
        <mxCell id="zsUwkZ8he_POYBpPR2Mp-10" value="openApp()" style="html=1;verticalAlign=bottom;endArrow=block;curved=0;rounded=0;" parent="1" edge="1">
          <mxGeometry width="80" relative="1" as="geometry">
            <mxPoint x="253" y="303" as="sourcePoint" />
            <mxPoint x="548" y="303" as="targetPoint" />
          </mxGeometry>
        </mxCell>
        <mxCell id="zsUwkZ8he_POYBpPR2Mp-11" value="Home Screen" style="html=1;verticalAlign=bottom;endArrow=open;dashed=1;endSize=8;curved=0;rounded=0;" parent="1" edge="1">
          <mxGeometry relative="1" as="geometry">
            <mxPoint x="543" y="357.6600000000001" as="sourcePoint" />
            <mxPoint x="253" y="357.6600000000001" as="targetPoint" />
          </mxGeometry>
        </mxCell>
        <mxCell id="zsUwkZ8he_POYBpPR2Mp-12" value="&lt;b&gt;Doctor&lt;/b&gt;" style="text;html=1;align=center;verticalAlign=middle;resizable=0;points=[];autosize=1;strokeColor=none;fillColor=none;" parent="1" vertex="1">
          <mxGeometry x="220" y="140" width="57" height="26" as="geometry" />
        </mxCell>
        <mxCell id="zsUwkZ8he_POYBpPR2Mp-14" value="viewRiskDetails(riskId)" style="html=1;verticalAlign=bottom;endArrow=block;curved=0;rounded=0;" parent="1" edge="1">
          <mxGeometry x="0.0034" width="80" relative="1" as="geometry">
            <mxPoint x="253" y="413" as="sourcePoint" />
            <mxPoint x="548" y="413" as="targetPoint" />
            <mxPoint as="offset" />
          </mxGeometry>
        </mxCell>
        <mxCell id="zsUwkZ8he_POYBpPR2Mp-15" value="Risks with Details" style="html=1;verticalAlign=bottom;endArrow=open;dashed=1;endSize=8;curved=0;rounded=0;" parent="1" edge="1">
          <mxGeometry x="0.0034" relative="1" as="geometry">
            <mxPoint x="548" y="463" as="sourcePoint" />
            <mxPoint x="253" y="463" as="targetPoint" />
            <mxPoint as="offset" />
          </mxGeometry>
        </mxCell>
        <mxCell id="rVR9B_5ytAlv7uLw0YBI-1" value="notifyMother(patientId, &quot;Health Risk Status : True / False&quot;)" style="html=1;align=left;spacingLeft=2;endArrow=block;rounded=0;edgeStyle=orthogonalEdgeStyle;curved=0;rounded=0;fontSize=12;startSize=8;endSize=8;" edge="1" parent="1">
          <mxGeometry relative="1" as="geometry">
            <mxPoint x="558" y="620" as="sourcePoint" />
            <Array as="points">
              <mxPoint x="588" y="650" />
            </Array>
            <mxPoint x="563" y="650.04" as="targetPoint" />
          </mxGeometry>
        </mxCell>
      </root>
    </mxGraphModel>
  </diagram>
  <diagram id="uRtMdaE6nEKmR7cJcNWV" name="Link Patient">
    <mxGraphModel dx="454" dy="593" grid="1" gridSize="10" guides="1" tooltips="1" connect="1" arrows="1" fold="1" page="1" pageScale="1" pageWidth="850" pageHeight="1100" math="0" shadow="0">
      <root>
        <mxCell id="0" />
        <mxCell id="1" parent="0" />
        <mxCell id="26JVJ_o7JPuk4fsMnDTx-1" value="&lt;b&gt;:System&lt;/b&gt;" style="shape=umlLifeline;perimeter=lifelinePerimeter;whiteSpace=wrap;html=1;container=1;dropTarget=0;collapsible=0;recursiveResize=0;outlineConnect=0;portConstraint=eastwest;newEdgeStyle={&quot;curved&quot;:0,&quot;rounded&quot;:0};" parent="1" vertex="1">
          <mxGeometry x="533" y="313" width="100" height="452" as="geometry" />
        </mxCell>
        <mxCell id="26JVJ_o7JPuk4fsMnDTx-4" value="confirmLinkPatient(doctorId, patientId)" style="html=1;verticalAlign=bottom;endArrow=block;curved=0;rounded=0;" parent="26JVJ_o7JPuk4fsMnDTx-1" edge="1">
          <mxGeometry width="80" relative="1" as="geometry">
            <mxPoint x="-250" y="332" as="sourcePoint" />
            <mxPoint x="45" y="332" as="targetPoint" />
          </mxGeometry>
        </mxCell>
        <mxCell id="26JVJ_o7JPuk4fsMnDTx-5" value="Patient Linked Successfully" style="html=1;verticalAlign=bottom;endArrow=open;dashed=1;endSize=8;curved=0;rounded=0;" parent="26JVJ_o7JPuk4fsMnDTx-1" edge="1">
          <mxGeometry relative="1" as="geometry">
            <mxPoint x="45" y="382" as="sourcePoint" />
            <mxPoint x="-250" y="382" as="targetPoint" />
          </mxGeometry>
        </mxCell>
        <mxCell id="26JVJ_o7JPuk4fsMnDTx-7" value="" style="shape=umlLifeline;perimeter=lifelinePerimeter;whiteSpace=wrap;html=1;container=0;dropTarget=0;collapsible=0;recursiveResize=0;outlineConnect=0;portConstraint=eastwest;newEdgeStyle={&quot;curved&quot;:0,&quot;rounded&quot;:0};participant=umlActor;" parent="1" vertex="1">
          <mxGeometry x="268" y="323" width="20" height="449" as="geometry" />
        </mxCell>
        <mxCell id="26JVJ_o7JPuk4fsMnDTx-10" value="requestLinkPatientInterface()" style="html=1;verticalAlign=bottom;endArrow=block;curved=0;rounded=0;" parent="1" target="26JVJ_o7JPuk4fsMnDTx-1" edge="1">
          <mxGeometry width="80" relative="1" as="geometry">
            <mxPoint x="283" y="443" as="sourcePoint" />
            <mxPoint x="578" y="443" as="targetPoint" />
          </mxGeometry>
        </mxCell>
        <mxCell id="26JVJ_o7JPuk4fsMnDTx-11" value="Link Patient Screen displayed" style="html=1;verticalAlign=bottom;endArrow=open;dashed=1;endSize=8;curved=0;rounded=0;" parent="1" source="26JVJ_o7JPuk4fsMnDTx-1" edge="1">
          <mxGeometry relative="1" as="geometry">
            <mxPoint x="573" y="497.6600000000001" as="sourcePoint" />
            <mxPoint x="283" y="497.6600000000001" as="targetPoint" />
          </mxGeometry>
        </mxCell>
        <mxCell id="26JVJ_o7JPuk4fsMnDTx-12" value="&lt;b&gt;Doctor&lt;/b&gt;" style="text;html=1;align=center;verticalAlign=middle;resizable=0;points=[];autosize=1;strokeColor=none;fillColor=none;" parent="1" vertex="1">
          <mxGeometry x="250" y="280" width="57" height="26" as="geometry" />
        </mxCell>
        <mxCell id="26JVJ_o7JPuk4fsMnDTx-14" value="enterPatientId(patientId)" style="html=1;verticalAlign=bottom;endArrow=block;curved=0;rounded=0;" parent="1" target="26JVJ_o7JPuk4fsMnDTx-1" edge="1">
          <mxGeometry x="0.0034" width="80" relative="1" as="geometry">
            <mxPoint x="283" y="553" as="sourcePoint" />
            <mxPoint x="578" y="553" as="targetPoint" />
            <mxPoint as="offset" />
          </mxGeometry>
        </mxCell>
        <mxCell id="26JVJ_o7JPuk4fsMnDTx-15" value="patientName, profilePicture, age, prevPregnancies" style="html=1;verticalAlign=bottom;endArrow=open;dashed=1;endSize=8;curved=0;rounded=0;" parent="1" edge="1">
          <mxGeometry x="0.0034" relative="1" as="geometry">
            <mxPoint x="578" y="613" as="sourcePoint" />
            <mxPoint x="283" y="613" as="targetPoint" />
            <mxPoint as="offset" />
          </mxGeometry>
        </mxCell>
      </root>
    </mxGraphModel>
  </diagram>
  <diagram id="2Bzg1nhilIM47hvO3xvc" name="Unlink Patient">
    <mxGraphModel dx="454" dy="593" grid="1" gridSize="10" guides="1" tooltips="1" connect="1" arrows="1" fold="1" page="1" pageScale="1" pageWidth="850" pageHeight="1100" math="0" shadow="0">
      <root>
        <mxCell id="0" />
        <mxCell id="1" parent="0" />
        <mxCell id="4XCG6ytl6kLDDEHHNfQo-1" value="&lt;b&gt;:System&lt;/b&gt;" style="shape=umlLifeline;perimeter=lifelinePerimeter;whiteSpace=wrap;html=1;container=1;dropTarget=0;collapsible=0;recursiveResize=0;outlineConnect=0;portConstraint=eastwest;newEdgeStyle={&quot;curved&quot;:0,&quot;rounded&quot;:0};" parent="1" vertex="1">
          <mxGeometry x="633" y="253" width="100" height="452" as="geometry" />
        </mxCell>
        <mxCell id="4XCG6ytl6kLDDEHHNfQo-4" value="confirmArchive(archivePatient)" style="html=1;verticalAlign=bottom;endArrow=block;curved=0;rounded=0;" parent="4XCG6ytl6kLDDEHHNfQo-1" edge="1">
          <mxGeometry width="80" relative="1" as="geometry">
            <mxPoint x="-250" y="332" as="sourcePoint" />
            <mxPoint x="45" y="332" as="targetPoint" />
            <mxPoint as="offset" />
          </mxGeometry>
        </mxCell>
        <mxCell id="4XCG6ytl6kLDDEHHNfQo-5" value="Archive Patient Sucessfully" style="html=1;verticalAlign=bottom;endArrow=open;dashed=1;endSize=8;curved=0;rounded=0;" parent="4XCG6ytl6kLDDEHHNfQo-1" edge="1">
          <mxGeometry x="0.0008" relative="1" as="geometry">
            <mxPoint x="45" y="382" as="sourcePoint" />
            <mxPoint x="-250" y="382" as="targetPoint" />
            <mxPoint as="offset" />
          </mxGeometry>
        </mxCell>
        <mxCell id="4XCG6ytl6kLDDEHHNfQo-7" value="" style="shape=umlLifeline;perimeter=lifelinePerimeter;whiteSpace=wrap;html=1;container=0;dropTarget=0;collapsible=0;recursiveResize=0;outlineConnect=0;portConstraint=eastwest;newEdgeStyle={&quot;curved&quot;:0,&quot;rounded&quot;:0};participant=umlActor;" parent="1" vertex="1">
          <mxGeometry x="368" y="263" width="20" height="449" as="geometry" />
        </mxCell>
        <mxCell id="4XCG6ytl6kLDDEHHNfQo-10" value="requestLinkedPatients()" style="html=1;verticalAlign=bottom;endArrow=block;curved=0;rounded=0;" parent="1" target="4XCG6ytl6kLDDEHHNfQo-1" edge="1">
          <mxGeometry x="0.0017" width="80" relative="1" as="geometry">
            <mxPoint x="383" y="383" as="sourcePoint" />
            <mxPoint x="678" y="383" as="targetPoint" />
            <mxPoint as="offset" />
          </mxGeometry>
        </mxCell>
        <mxCell id="4XCG6ytl6kLDDEHHNfQo-11" value="display linked patients" style="html=1;verticalAlign=bottom;endArrow=open;dashed=1;endSize=8;curved=0;rounded=0;" parent="1" edge="1">
          <mxGeometry relative="1" as="geometry">
            <mxPoint x="682.5" y="439" as="sourcePoint" />
            <mxPoint x="377.5" y="439" as="targetPoint" />
          </mxGeometry>
        </mxCell>
        <mxCell id="4XCG6ytl6kLDDEHHNfQo-12" value="&lt;b&gt;Doctor&lt;/b&gt;" style="text;html=1;align=center;verticalAlign=middle;resizable=0;points=[];autosize=1;strokeColor=none;fillColor=none;" parent="1" vertex="1">
          <mxGeometry x="350" y="220" width="57" height="26" as="geometry" />
        </mxCell>
        <mxCell id="4XCG6ytl6kLDDEHHNfQo-14" value="selectPatientForArchive(patientId)" style="html=1;verticalAlign=bottom;endArrow=block;curved=0;rounded=0;" parent="1" source="4XCG6ytl6kLDDEHHNfQo-7" target="4XCG6ytl6kLDDEHHNfQo-1" edge="1">
          <mxGeometry x="0.0034" width="80" relative="1" as="geometry">
            <mxPoint x="383" y="493" as="sourcePoint" />
            <mxPoint x="678" y="493" as="targetPoint" />
            <mxPoint as="offset" />
          </mxGeometry>
        </mxCell>
        <mxCell id="4XCG6ytl6kLDDEHHNfQo-15" value="Prompt Archive Confirmation" style="html=1;verticalAlign=bottom;endArrow=open;dashed=1;endSize=8;curved=0;rounded=0;" parent="1" target="4XCG6ytl6kLDDEHHNfQo-7" edge="1">
          <mxGeometry x="0.004" relative="1" as="geometry">
            <mxPoint x="678" y="543" as="sourcePoint" />
            <mxPoint x="383" y="543" as="targetPoint" />
            <mxPoint as="offset" />
          </mxGeometry>
        </mxCell>
        <mxCell id="01483wLMna_ypcVu5A-u-1" value="archivePatient(patientId)" style="html=1;align=left;spacingLeft=2;endArrow=block;rounded=0;edgeStyle=orthogonalEdgeStyle;curved=0;rounded=0;fontSize=12;startSize=8;endSize=8;" parent="1" edge="1">
          <mxGeometry relative="1" as="geometry">
            <mxPoint x="680" y="590" as="sourcePoint" />
            <Array as="points">
              <mxPoint x="710" y="620" />
            </Array>
            <mxPoint x="685" y="620.04" as="targetPoint" />
          </mxGeometry>
        </mxCell>
      </root>
    </mxGraphModel>
  </diagram>
  <diagram id="SwYh3-iF_OJLrxi5e5A9" name="View Risk">
    <mxGraphModel dx="1147" dy="602" grid="1" gridSize="10" guides="1" tooltips="1" connect="1" arrows="1" fold="1" page="1" pageScale="1" pageWidth="850" pageHeight="1100" math="0" shadow="0">
      <root>
        <mxCell id="0" />
        <mxCell id="1" parent="0" />
        <mxCell id="34khj6p2j0FQoR3KR22k-11" value="&lt;b&gt;:System&lt;/b&gt;" style="shape=umlLifeline;perimeter=lifelinePerimeter;whiteSpace=wrap;html=1;container=1;dropTarget=0;collapsible=0;recursiveResize=0;outlineConnect=0;portConstraint=eastwest;newEdgeStyle={&quot;curved&quot;:0,&quot;rounded&quot;:0};fontStyle=4" vertex="1" parent="1">
          <mxGeometry x="663" y="613" width="100" height="337" as="geometry" />
        </mxCell>
        <mxCell id="34khj6p2j0FQoR3KR22k-14" value="" style="shape=umlLifeline;perimeter=lifelinePerimeter;whiteSpace=wrap;html=1;container=0;dropTarget=0;collapsible=0;recursiveResize=0;outlineConnect=0;portConstraint=eastwest;newEdgeStyle={&quot;curved&quot;:0,&quot;rounded&quot;:0};participant=umlActor;" vertex="1" parent="1">
          <mxGeometry x="398" y="623" width="20" height="337" as="geometry" />
        </mxCell>
        <mxCell id="34khj6p2j0FQoR3KR22k-15" value="openApp()" style="html=1;verticalAlign=bottom;endArrow=block;curved=0;rounded=0;" edge="1" parent="1" target="34khj6p2j0FQoR3KR22k-11">
          <mxGeometry width="80" relative="1" as="geometry">
            <mxPoint x="413" y="743" as="sourcePoint" />
            <mxPoint x="708" y="743" as="targetPoint" />
          </mxGeometry>
        </mxCell>
        <mxCell id="34khj6p2j0FQoR3KR22k-16" value="Home Screen" style="html=1;verticalAlign=bottom;endArrow=open;dashed=1;endSize=8;curved=0;rounded=0;" edge="1" parent="1" source="34khj6p2j0FQoR3KR22k-11">
          <mxGeometry relative="1" as="geometry">
            <mxPoint x="703" y="797.6600000000001" as="sourcePoint" />
            <mxPoint x="413" y="797.6600000000001" as="targetPoint" />
          </mxGeometry>
        </mxCell>
        <mxCell id="34khj6p2j0FQoR3KR22k-17" value="&lt;b&gt;Doctor / Mother&lt;/b&gt;" style="text;html=1;align=center;verticalAlign=middle;resizable=0;points=[];autosize=1;strokeColor=none;fillColor=none;" vertex="1" parent="1">
          <mxGeometry x="354" y="578" width="110" height="30" as="geometry" />
        </mxCell>
        <mxCell id="34khj6p2j0FQoR3KR22k-18" value="viewRiskDetails(riskId)" style="html=1;verticalAlign=bottom;endArrow=block;curved=0;rounded=0;" edge="1" parent="1" target="34khj6p2j0FQoR3KR22k-11">
          <mxGeometry x="0.0034" width="80" relative="1" as="geometry">
            <mxPoint x="413" y="853" as="sourcePoint" />
            <mxPoint x="708" y="853" as="targetPoint" />
            <mxPoint as="offset" />
          </mxGeometry>
        </mxCell>
        <mxCell id="34khj6p2j0FQoR3KR22k-19" value="patientName, patientPhoto, riskdetails" style="html=1;verticalAlign=bottom;endArrow=open;dashed=1;endSize=8;curved=0;rounded=0;" edge="1" parent="1">
          <mxGeometry x="0.0034" relative="1" as="geometry">
            <mxPoint x="708" y="903" as="sourcePoint" />
            <mxPoint x="413" y="903" as="targetPoint" />
            <mxPoint as="offset" />
          </mxGeometry>
        </mxCell>
      </root>
    </mxGraphModel>
  </diagram>
  <diagram id="e4VwhKhSV_gRsRwvl2_I" name="Count Fetal Movements">
    <mxGraphModel dx="649" dy="847" grid="1" gridSize="10" guides="1" tooltips="1" connect="1" arrows="1" fold="1" page="1" pageScale="1" pageWidth="850" pageHeight="1100" math="0" shadow="0">
      <root>
        <mxCell id="0" />
        <mxCell id="1" parent="0" />
        <mxCell id="mng6JCfbGUVjkmMADoNK-1" value="&lt;b&gt;:System&lt;/b&gt;" style="shape=umlLifeline;perimeter=lifelinePerimeter;whiteSpace=wrap;html=1;container=1;dropTarget=0;collapsible=0;recursiveResize=0;outlineConnect=0;portConstraint=eastwest;newEdgeStyle={&quot;curved&quot;:0,&quot;rounded&quot;:0};" parent="1" vertex="1">
          <mxGeometry x="549" y="347" width="100" height="447" as="geometry" />
        </mxCell>
        <mxCell id="mng6JCfbGUVjkmMADoNK-7" value="" style="shape=umlLifeline;perimeter=lifelinePerimeter;whiteSpace=wrap;html=1;container=0;dropTarget=0;collapsible=0;recursiveResize=0;outlineConnect=0;portConstraint=eastwest;newEdgeStyle={&quot;curved&quot;:0,&quot;rounded&quot;:0};participant=umlActor;" parent="1" vertex="1">
          <mxGeometry x="284" y="357" width="20" height="437" as="geometry" />
        </mxCell>
        <mxCell id="mng6JCfbGUVjkmMADoNK-10" value="openFetalMovement()" style="html=1;verticalAlign=bottom;endArrow=block;curved=0;rounded=0;" parent="1" edge="1" target="mng6JCfbGUVjkmMADoNK-1">
          <mxGeometry width="80" relative="1" as="geometry">
            <mxPoint x="299" y="477" as="sourcePoint" />
            <mxPoint x="594" y="477" as="targetPoint" />
          </mxGeometry>
        </mxCell>
        <mxCell id="mng6JCfbGUVjkmMADoNK-11" value="display fetal movement" style="html=1;verticalAlign=bottom;endArrow=open;dashed=1;endSize=8;curved=0;rounded=0;" parent="1" edge="1" source="mng6JCfbGUVjkmMADoNK-1">
          <mxGeometry relative="1" as="geometry">
            <mxPoint x="589" y="531.6600000000001" as="sourcePoint" />
            <mxPoint x="299" y="531.6600000000001" as="targetPoint" />
          </mxGeometry>
        </mxCell>
        <mxCell id="mng6JCfbGUVjkmMADoNK-12" value="&lt;div&gt;&lt;b&gt;Mother&lt;/b&gt;&lt;/div&gt;" style="text;html=1;align=center;verticalAlign=middle;resizable=0;points=[];autosize=1;strokeColor=none;fillColor=none;" parent="1" vertex="1">
          <mxGeometry x="265" y="322" width="60" height="30" as="geometry" />
        </mxCell>
        <mxCell id="mng6JCfbGUVjkmMADoNK-14" value="logFetalMovement()" style="html=1;verticalAlign=bottom;endArrow=block;curved=0;rounded=0;" parent="1" edge="1">
          <mxGeometry width="80" relative="1" as="geometry">
            <mxPoint x="299" y="587" as="sourcePoint" />
            <mxPoint x="594" y="587" as="targetPoint" />
          </mxGeometry>
        </mxCell>
        <mxCell id="mng6JCfbGUVjkmMADoNK-15" value="Movement Count Kicks, Jab, Roll etc." style="html=1;verticalAlign=bottom;endArrow=open;dashed=1;endSize=8;curved=0;rounded=0;" parent="1" edge="1">
          <mxGeometry relative="1" as="geometry">
            <mxPoint x="594" y="637" as="sourcePoint" />
            <mxPoint x="299" y="637" as="targetPoint" />
          </mxGeometry>
        </mxCell>
        <mxCell id="33EhdpYVAs03Gb4Pqtdu-1" value="loop" style="shape=umlFrame;whiteSpace=wrap;html=1;pointerEvents=0;" vertex="1" parent="1">
          <mxGeometry x="219" y="560" width="551" height="100" as="geometry" />
        </mxCell>
        <mxCell id="ceMNbYopq4yQYVJFBEqO-1" value="trackMovementCount()" style="html=1;align=left;spacingLeft=2;endArrow=block;rounded=0;edgeStyle=orthogonalEdgeStyle;curved=0;rounded=0;fontSize=12;startSize=8;endSize=8;" edge="1" parent="1">
          <mxGeometry x="0.0084" relative="1" as="geometry">
            <mxPoint x="600" y="600" as="sourcePoint" />
            <Array as="points">
              <mxPoint x="630" y="630" />
            </Array>
            <mxPoint x="605" y="630.04" as="targetPoint" />
            <mxPoint as="offset" />
          </mxGeometry>
        </mxCell>
        <mxCell id="ceMNbYopq4yQYVJFBEqO-3" value="saveFetalMovements(movementCount, duration)" style="html=1;align=left;spacingLeft=2;endArrow=block;rounded=0;edgeStyle=orthogonalEdgeStyle;curved=0;rounded=0;fontSize=12;startSize=8;endSize=8;" edge="1" parent="1">
          <mxGeometry relative="1" as="geometry">
            <mxPoint x="600" y="670" as="sourcePoint" />
            <Array as="points">
              <mxPoint x="630" y="700" />
            </Array>
            <mxPoint x="605" y="700.04" as="targetPoint" />
          </mxGeometry>
        </mxCell>
        <mxCell id="mng6JCfbGUVjkmMADoNK-5" value="Movement Saved Successfully" style="html=1;verticalAlign=bottom;endArrow=open;dashed=1;endSize=8;curved=0;rounded=0;" parent="1" edge="1">
          <mxGeometry x="0.0034" relative="1" as="geometry">
            <mxPoint x="594" y="720" as="sourcePoint" />
            <mxPoint x="299" y="720" as="targetPoint" />
            <mxPoint as="offset" />
          </mxGeometry>
        </mxCell>
      </root>
    </mxGraphModel>
  </diagram>
  <diagram id="LZib8R2Pr614oeA7_i74" name="Send / Recieve Messages">
    <mxGraphModel dx="454" dy="593" grid="1" gridSize="10" guides="1" tooltips="1" connect="1" arrows="1" fold="1" page="1" pageScale="1" pageWidth="850" pageHeight="1100" math="0" shadow="0">
      <root>
        <mxCell id="0" />
        <mxCell id="1" parent="0" />
        <mxCell id="9FlmonEehKjEiT7aTPPV-1" value="&lt;b&gt;:System&lt;/b&gt;" style="shape=umlLifeline;perimeter=lifelinePerimeter;whiteSpace=wrap;html=1;container=1;dropTarget=0;collapsible=0;recursiveResize=0;outlineConnect=0;portConstraint=eastwest;newEdgeStyle={&quot;curved&quot;:0,&quot;rounded&quot;:0};" parent="1" vertex="1">
          <mxGeometry x="463" y="703" width="100" height="447" as="geometry" />
        </mxCell>
        <mxCell id="9FlmonEehKjEiT7aTPPV-4" value="sendChat(message)" style="html=1;verticalAlign=bottom;endArrow=block;curved=0;rounded=0;" parent="9FlmonEehKjEiT7aTPPV-1" edge="1">
          <mxGeometry width="80" relative="1" as="geometry">
            <mxPoint x="-250" y="332" as="sourcePoint" />
            <mxPoint x="45" y="332" as="targetPoint" />
          </mxGeometry>
        </mxCell>
        <mxCell id="9FlmonEehKjEiT7aTPPV-5" value="Message Sent &amp;amp; Recieved by the opposite party." style="html=1;verticalAlign=bottom;endArrow=open;dashed=1;endSize=8;curved=0;rounded=0;" parent="9FlmonEehKjEiT7aTPPV-1" edge="1">
          <mxGeometry x="0.0034" relative="1" as="geometry">
            <mxPoint x="45" y="382" as="sourcePoint" />
            <mxPoint x="-250" y="382" as="targetPoint" />
            <mxPoint as="offset" />
          </mxGeometry>
        </mxCell>
        <mxCell id="9FlmonEehKjEiT7aTPPV-10" value="" style="shape=umlLifeline;perimeter=lifelinePerimeter;whiteSpace=wrap;html=1;container=0;dropTarget=0;collapsible=0;recursiveResize=0;outlineConnect=0;portConstraint=eastwest;newEdgeStyle={&quot;curved&quot;:0,&quot;rounded&quot;:0};participant=umlActor;" parent="1" vertex="1">
          <mxGeometry x="198" y="713" width="20" height="437" as="geometry" />
        </mxCell>
        <mxCell id="9FlmonEehKjEiT7aTPPV-14" value="openApp()" style="html=1;verticalAlign=bottom;endArrow=block;curved=0;rounded=0;" parent="1" edge="1">
          <mxGeometry width="80" relative="1" as="geometry">
            <mxPoint x="213" y="833" as="sourcePoint" />
            <mxPoint x="508" y="833" as="targetPoint" />
          </mxGeometry>
        </mxCell>
        <mxCell id="9FlmonEehKjEiT7aTPPV-15" value="Home Screen" style="html=1;verticalAlign=bottom;endArrow=open;dashed=1;endSize=8;curved=0;rounded=0;" parent="1" edge="1">
          <mxGeometry relative="1" as="geometry">
            <mxPoint x="503" y="887.6600000000001" as="sourcePoint" />
            <mxPoint x="213" y="887.6600000000001" as="targetPoint" />
          </mxGeometry>
        </mxCell>
        <mxCell id="9FlmonEehKjEiT7aTPPV-16" value="&lt;div&gt;&lt;b&gt;User&lt;/b&gt;&lt;/div&gt;&lt;b&gt;Doctor / Mother&lt;/b&gt;" style="text;html=1;align=center;verticalAlign=middle;resizable=0;points=[];autosize=1;strokeColor=none;fillColor=none;" parent="1" vertex="1">
          <mxGeometry x="154" y="663" width="110" height="40" as="geometry" />
        </mxCell>
        <mxCell id="9FlmonEehKjEiT7aTPPV-18" value="openChat()" style="html=1;verticalAlign=bottom;endArrow=block;curved=0;rounded=0;" parent="1" edge="1">
          <mxGeometry width="80" relative="1" as="geometry">
            <mxPoint x="213" y="943" as="sourcePoint" />
            <mxPoint x="508" y="943" as="targetPoint" />
          </mxGeometry>
        </mxCell>
        <mxCell id="9FlmonEehKjEiT7aTPPV-19" value="chats displayed" style="html=1;verticalAlign=bottom;endArrow=open;dashed=1;endSize=8;curved=0;rounded=0;" parent="1" edge="1">
          <mxGeometry relative="1" as="geometry">
            <mxPoint x="508" y="993" as="sourcePoint" />
            <mxPoint x="213" y="993" as="targetPoint" />
          </mxGeometry>
        </mxCell>
      </root>
    </mxGraphModel>
  </diagram>
  <diagram id="877GKtHhqu0svKgZ0TZN" name="Prescribe Meal Plan">
    <mxGraphModel dx="561" dy="447" grid="0" gridSize="10" guides="1" tooltips="1" connect="1" arrows="1" fold="1" page="0" pageScale="1" pageWidth="827" pageHeight="1169" math="0" shadow="0">
      <root>
        <mxCell id="0" />
        <mxCell id="1" parent="0" />
        <mxCell id="uq8N1Tp72tIHCqsOqCHj-1" value="&lt;b&gt;:System&lt;/b&gt;" style="shape=umlLifeline;perimeter=lifelinePerimeter;whiteSpace=wrap;html=1;container=1;dropTarget=0;collapsible=0;recursiveResize=0;outlineConnect=0;portConstraint=eastwest;newEdgeStyle={&quot;curved&quot;:0,&quot;rounded&quot;:0};fontStyle=4" parent="1" vertex="1">
          <mxGeometry x="692" y="681" width="100" height="664" as="geometry" />
        </mxCell>
        <mxCell id="uq8N1Tp72tIHCqsOqCHj-13" value="selectPatient(patientId)" style="html=1;verticalAlign=bottom;endArrow=block;curved=0;rounded=0;" parent="uq8N1Tp72tIHCqsOqCHj-1" edge="1">
          <mxGeometry width="80" relative="1" as="geometry">
            <mxPoint x="-250" y="332" as="sourcePoint" />
            <mxPoint x="45" y="332" as="targetPoint" />
          </mxGeometry>
        </mxCell>
        <mxCell id="uq8N1Tp72tIHCqsOqCHj-14" value="patient details displayed" style="html=1;verticalAlign=bottom;endArrow=open;dashed=1;endSize=8;curved=0;rounded=0;" parent="uq8N1Tp72tIHCqsOqCHj-1" edge="1">
          <mxGeometry relative="1" as="geometry">
            <mxPoint x="45" y="382" as="sourcePoint" />
            <mxPoint x="-250" y="382" as="targetPoint" />
          </mxGeometry>
        </mxCell>
        <mxCell id="uq8N1Tp72tIHCqsOqCHj-24" value="navigateToMealPlan()" style="html=1;verticalAlign=bottom;endArrow=block;curved=0;rounded=0;" parent="uq8N1Tp72tIHCqsOqCHj-1" edge="1">
          <mxGeometry width="80" relative="1" as="geometry">
            <mxPoint x="-252" y="424" as="sourcePoint" />
            <mxPoint x="43" y="424" as="targetPoint" />
          </mxGeometry>
        </mxCell>
        <mxCell id="NsSET0T2irGAeXSuYEdC-12" value="notifyMother(patientId, &quot;New Meal Plan Assigned&quot;)" style="html=1;align=left;spacingLeft=2;endArrow=block;rounded=0;edgeStyle=orthogonalEdgeStyle;curved=0;rounded=0;fontSize=12;startSize=8;endSize=8;" edge="1" parent="uq8N1Tp72tIHCqsOqCHj-1">
          <mxGeometry relative="1" as="geometry">
            <mxPoint x="49" y="604" as="sourcePoint" />
            <Array as="points">
              <mxPoint x="79" y="634" />
            </Array>
            <mxPoint x="54" y="634.04" as="targetPoint" />
          </mxGeometry>
        </mxCell>
        <mxCell id="uq8N1Tp72tIHCqsOqCHj-4" value="" style="shape=umlLifeline;perimeter=lifelinePerimeter;whiteSpace=wrap;html=1;container=0;dropTarget=0;collapsible=0;recursiveResize=0;outlineConnect=0;portConstraint=eastwest;newEdgeStyle={&quot;curved&quot;:0,&quot;rounded&quot;:0};participant=umlActor;" parent="1" vertex="1">
          <mxGeometry x="427" y="691" width="20" height="633" as="geometry" />
        </mxCell>
        <mxCell id="uq8N1Tp72tIHCqsOqCHj-6" value="openApp()" style="html=1;verticalAlign=bottom;endArrow=block;curved=0;rounded=0;" parent="1" edge="1">
          <mxGeometry width="80" relative="1" as="geometry">
            <mxPoint x="442" y="811" as="sourcePoint" />
            <mxPoint x="737" y="811" as="targetPoint" />
          </mxGeometry>
        </mxCell>
        <mxCell id="uq8N1Tp72tIHCqsOqCHj-7" value="Home Screen" style="html=1;verticalAlign=bottom;endArrow=open;dashed=1;endSize=8;curved=0;rounded=0;" parent="1" edge="1" source="uq8N1Tp72tIHCqsOqCHj-1">
          <mxGeometry relative="1" as="geometry">
            <mxPoint x="732" y="865.6600000000001" as="sourcePoint" />
            <mxPoint x="442" y="865.6600000000001" as="targetPoint" />
          </mxGeometry>
        </mxCell>
        <mxCell id="uq8N1Tp72tIHCqsOqCHj-8" value="&lt;b&gt;Doctor&lt;/b&gt;" style="text;html=1;align=center;verticalAlign=middle;resizable=0;points=[];autosize=1;strokeColor=none;fillColor=none;" parent="1" vertex="1">
          <mxGeometry x="409" y="648" width="57" height="26" as="geometry" />
        </mxCell>
        <mxCell id="uq8N1Tp72tIHCqsOqCHj-10" value="reuestLinkedPatients(patientsList)" style="html=1;verticalAlign=bottom;endArrow=block;curved=0;rounded=0;" parent="1" edge="1">
          <mxGeometry width="80" relative="1" as="geometry">
            <mxPoint x="442" y="921" as="sourcePoint" />
            <mxPoint x="737" y="921" as="targetPoint" />
          </mxGeometry>
        </mxCell>
        <mxCell id="uq8N1Tp72tIHCqsOqCHj-11" value="display linked patients" style="html=1;verticalAlign=bottom;endArrow=open;dashed=1;endSize=8;curved=0;rounded=0;" parent="1" edge="1">
          <mxGeometry relative="1" as="geometry">
            <mxPoint x="737" y="971" as="sourcePoint" />
            <mxPoint x="442" y="971" as="targetPoint" />
          </mxGeometry>
        </mxCell>
        <mxCell id="NsSET0T2irGAeXSuYEdC-8" value="enterMealDetails(mealItems, frequency)" style="html=1;verticalAlign=bottom;endArrow=block;curved=0;rounded=0;" edge="1" parent="1">
          <mxGeometry width="80" relative="1" as="geometry">
            <mxPoint x="436.7857142857143" y="1197.5" as="sourcePoint" />
            <mxPoint x="741.5" y="1197.5" as="targetPoint" />
          </mxGeometry>
        </mxCell>
        <mxCell id="uq8N1Tp72tIHCqsOqCHj-23" value="meal plan screen displayed" style="html=1;verticalAlign=bottom;endArrow=open;dashed=1;endSize=8;curved=0;rounded=0;" parent="1" edge="1">
          <mxGeometry relative="1" as="geometry">
            <mxPoint x="741.4999999999999" y="1154" as="sourcePoint" />
            <mxPoint x="437.0652173913043" y="1154" as="targetPoint" />
          </mxGeometry>
        </mxCell>
        <mxCell id="NsSET0T2irGAeXSuYEdC-9" value="meal plan saved successully" style="html=1;verticalAlign=bottom;endArrow=open;dashed=1;endSize=8;curved=0;rounded=0;" edge="1" parent="1">
          <mxGeometry relative="1" as="geometry">
            <mxPoint x="741.4999999999999" y="1274" as="sourcePoint" />
            <mxPoint x="437.0652173913043" y="1274" as="targetPoint" />
          </mxGeometry>
        </mxCell>
        <mxCell id="NsSET0T2irGAeXSuYEdC-10" value="submitMealPlan(patientId, mealData)" style="html=1;verticalAlign=bottom;endArrow=block;curved=0;rounded=0;" edge="1" parent="1">
          <mxGeometry width="80" relative="1" as="geometry">
            <mxPoint x="435.99571428571426" y="1232" as="sourcePoint" />
            <mxPoint x="740.71" y="1232" as="targetPoint" />
          </mxGeometry>
        </mxCell>
      </root>
    </mxGraphModel>
  </diagram>
  <diagram id="7QK4ZctF8PpG6Ll0szLK" name="Logout">
    <mxGraphModel dx="454" dy="593" grid="0" gridSize="10" guides="1" tooltips="1" connect="1" arrows="1" fold="1" page="0" pageScale="1" pageWidth="827" pageHeight="1169" math="0" shadow="0">
      <root>
        <mxCell id="0" />
        <mxCell id="1" parent="0" />
        <mxCell id="9B1gWrrJtCZUOP9kKmel-1" value="&lt;b&gt;:System&lt;/b&gt;" style="shape=umlLifeline;perimeter=lifelinePerimeter;whiteSpace=wrap;html=1;container=1;dropTarget=0;collapsible=0;recursiveResize=0;outlineConnect=0;portConstraint=eastwest;newEdgeStyle={&quot;curved&quot;:0,&quot;rounded&quot;:0};fontStyle=4" vertex="1" parent="1">
          <mxGeometry x="506" y="279" width="100" height="326" as="geometry" />
        </mxCell>
        <mxCell id="9B1gWrrJtCZUOP9kKmel-2" value="" style="shape=umlLifeline;perimeter=lifelinePerimeter;whiteSpace=wrap;html=1;container=0;dropTarget=0;collapsible=0;recursiveResize=0;outlineConnect=0;portConstraint=eastwest;newEdgeStyle={&quot;curved&quot;:0,&quot;rounded&quot;:0};participant=umlActor;" vertex="1" parent="1">
          <mxGeometry x="241" y="289" width="20" height="330" as="geometry" />
        </mxCell>
        <mxCell id="9B1gWrrJtCZUOP9kKmel-3" value="requestLogout()" style="html=1;verticalAlign=bottom;endArrow=block;curved=0;rounded=0;" edge="1" parent="1" target="9B1gWrrJtCZUOP9kKmel-1">
          <mxGeometry width="80" relative="1" as="geometry">
            <mxPoint x="256" y="409" as="sourcePoint" />
            <mxPoint x="551" y="409" as="targetPoint" />
          </mxGeometry>
        </mxCell>
        <mxCell id="9B1gWrrJtCZUOP9kKmel-5" value="&lt;div&gt;&lt;b&gt;Mother / Doctor&lt;/b&gt;&lt;/div&gt;" style="text;html=1;align=center;verticalAlign=middle;resizable=0;points=[];autosize=1;strokeColor=none;fillColor=none;" vertex="1" parent="1">
          <mxGeometry x="199" y="256" width="107" height="26" as="geometry" />
        </mxCell>
        <mxCell id="9B1gWrrJtCZUOP9kKmel-9" value="terminateSession()" style="html=1;align=left;spacingLeft=2;endArrow=block;rounded=0;edgeStyle=orthogonalEdgeStyle;curved=0;rounded=0;fontSize=12;startSize=8;endSize=8;" edge="1" parent="1">
          <mxGeometry x="0.0084" relative="1" as="geometry">
            <mxPoint x="557" y="442" as="sourcePoint" />
            <Array as="points">
              <mxPoint x="587" y="472" />
            </Array>
            <mxPoint x="562" y="472.03999999999996" as="targetPoint" />
            <mxPoint as="offset" />
          </mxGeometry>
        </mxCell>
        <mxCell id="9B1gWrrJtCZUOP9kKmel-11" value="user redirected to login page" style="html=1;verticalAlign=bottom;endArrow=open;dashed=1;endSize=8;curved=0;rounded=0;" edge="1" parent="1">
          <mxGeometry x="0.0034" relative="1" as="geometry">
            <mxPoint x="551" y="512" as="sourcePoint" />
            <mxPoint x="256" y="512" as="targetPoint" />
            <mxPoint as="offset" />
          </mxGeometry>
        </mxCell>
      </root>
    </mxGraphModel>
  </diagram>
</mxfile>
